<?xml version="1.0" standalone="no"?>
<!DOCTYPE svg PUBLIC "-//W3C//DTD SVG 20010904//EN"
 "http://www.w3.org/TR/2001/REC-SVG-20010904/DTD/svg10.dtd">
<svg version="1.0" xmlns="http://www.w3.org/2000/svg"
 width="512.000000pt" height="512.000000pt" viewBox="0 0 512.000000 512.000000"
 preserveAspectRatio="xMidYMid meet">

<g transform="translate(0.000000,512.000000) scale(0.100000,-0.100000)"
fill="#000000" stroke="none">
<path d="M1413 5086 c-27 -23 -28 -28 -31 -138 l-4 -113 -81 -25 c-44 -13
-127 -47 -183 -75 l-103 -50 -80 78 c-119 114 -102 120 -344 -120 -109 -109
-203 -208 -208 -220 -13 -35 5 -69 81 -148 l70 -72 -45 -89 c-25 -49 -60 -133
-77 -186 l-31 -98 -107 0 c-93 0 -111 -3 -134 -21 l-26 -20 0 -293 0 -293 23
-21 c21 -20 34 -22 133 -22 l110 0 28 -87 c15 -49 51 -135 78 -192 l51 -103
-78 -78 c-115 -116 -121 -98 126 -346 248 -248 232 -242 350 -127 l79 76 115
-54 c89 -42 115 -58 115 -74 1 -38 79 -253 126 -346 25 -52 74 -134 108 -184
84 -125 273 -312 405 -400 57 -39 118 -87 135 -108 l31 -39 6 -251 c5 -237 6
-255 28 -300 25 -51 109 -134 146 -143 19 -5 24 -16 33 -71 22 -130 102 -236
220 -291 56 -26 61 -27 252 -27 l195 0 65 31 c118 56 202 171 216 294 6 52 9
58 38 68 49 18 99 65 131 123 l30 54 5 250 c6 301 7 303 130 381 363 230 611
592 697 1019 25 127 25 433 0 560 -64 317 -199 568 -426 796 -216 215 -460
353 -732 413 l-76 17 -46 92 -46 92 74 76 c81 83 94 112 72 155 -9 16 -101
113 -205 217 -231 229 -216 224 -336 108 l-81 -79 -90 45 c-87 44 -241 103
-271 103 -11 0 -14 21 -14 105 0 114 -9 147 -47 164 -16 7 -118 11 -298 11
l-274 0 -28 -24z m487 -241 c0 -121 8 -136 82 -155 159 -40 252 -77 373 -149
38 -22 80 -41 93 -41 17 0 49 24 101 75 l77 74 124 -124 124 -124 -72 -75
c-88 -90 -90 -107 -32 -203 22 -37 40 -70 40 -75 0 -4 -48 -8 -107 -8 -60 0
-145 -5 -189 -11 l-82 -12 -68 73 c-114 121 -255 207 -411 252 -67 20 -101 23
-238 22 -148 0 -166 -2 -245 -28 -110 -37 -189 -77 -273 -138 -190 -141 -316
-360 -348 -607 -22 -176 23 -383 119 -545 44 -75 176 -223 230 -258 23 -15 23
-16 11 -133 -6 -65 -9 -151 -7 -192 3 -49 1 -73 -6 -73 -6 0 -49 23 -96 50
-47 28 -96 50 -109 50 -16 0 -48 -24 -100 -75 l-77 -74 -124 124 -125 125 74
74 c57 58 74 81 74 103 0 15 -23 68 -51 117 -58 101 -101 207 -127 314 -27
112 -33 116 -159 120 l-106 4 0 174 0 174 100 0 c125 0 137 9 164 120 24 100
75 223 132 323 26 45 47 95 47 110 0 22 -17 45 -74 103 l-74 74 125 125 124
124 77 -74 c85 -83 110 -91 164 -54 93 63 272 138 403 169 74 17 82 33 82 157
l0 103 180 0 180 0 0 -105z m-5 -655 c107 -27 205 -78 294 -152 l75 -61 -30
-13 c-16 -7 -73 -32 -127 -55 -215 -91 -447 -277 -598 -478 -86 -115 -183
-295 -220 -409 -12 -39 -27 -72 -33 -72 -12 0 -90 83 -126 135 -85 123 -124
253 -123 410 0 131 17 205 76 325 33 69 58 102 132 175 102 103 202 162 327
195 101 26 250 26 353 0z m1070 -326 c312 -54 614 -228 813 -469 226 -272 333
-587 319 -930 -13 -325 -125 -605 -346 -864 -62 -74 -175 -169 -294 -248 -157
-105 -197 -174 -205 -350 l-5 -113 -133 0 -134 0 0 549 0 549 38 7 c193 36
386 165 454 303 29 58 33 76 33 147 0 66 -5 90 -26 136 -37 79 -90 133 -167
171 -59 29 -76 33 -147 33 -65 -1 -91 -5 -137 -27 -75 -35 -138 -94 -174 -165
-29 -58 -29 -59 -32 -266 l-3 -208 -87 3 -87 3 -5 210 c-5 204 -6 212 -32 261
-36 69 -124 148 -190 171 -81 27 -189 24 -260 -9 -108 -50 -179 -146 -201
-271 -20 -118 40 -247 160 -342 73 -58 175 -108 281 -137 l82 -23 0 -547 0
-548 -134 0 -134 0 -4 118 c-3 103 -7 123 -30 168 -40 76 -72 109 -168 174
-340 229 -539 518 -622 904 -28 132 -30 377 -5 509 112 565 552 1001 1112
1101 110 20 357 20 470 0z m-564 -1269 c69 -45 79 -79 79 -275 l0 -171 -22 6
c-82 25 -180 70 -223 103 -98 75 -137 151 -115 231 33 122 176 176 281 106z
m834 16 c101 -47 142 -149 96 -239 -45 -89 -186 -183 -323 -216 l-28 -6 0 165
c0 183 6 211 59 260 57 55 128 68 196 36z m-415 -1186 l0 -535 -90 0 -90 0 0
535 0 535 90 0 90 0 0 -535z m430 -742 c0 -60 -29 -109 -75 -129 -50 -21 -839
-21 -890 0 -41 17 -62 48 -71 103 -12 79 -55 73 521 73 l515 0 0 -47z m-200
-314 c0 -38 -30 -99 -65 -134 -54 -55 -96 -65 -261 -65 -114 0 -146 4 -179 19
-71 33 -115 87 -128 159 l-6 32 319 0 c232 0 320 -3 320 -11z"/>
<path d="M3778 4488 c-40 -35 -218 -353 -218 -387 0 -65 75 -102 123 -59 40
36 217 351 217 386 0 66 -75 103 -122 60z"/>
<path d="M4431 3599 c-96 -55 -180 -108 -187 -117 -35 -45 5 -122 63 -122 30
0 368 188 391 217 19 26 15 80 -8 103 -38 38 -73 27 -259 -81z"/>
<path d="M4502 2577 c-30 -32 -29 -77 4 -108 25 -23 31 -24 211 -27 206 -4
245 0 274 29 26 26 25 83 -1 109 -19 19 -33 20 -243 20 -221 0 -224 0 -245
-23z"/>
<path d="M1131 1693 c-39 -15 -358 -206 -368 -220 -34 -44 7 -123 63 -123 27
0 353 180 386 213 25 24 23 82 -2 107 -11 11 -24 20 -29 20 -5 0 -15 2 -23 4
-7 3 -19 2 -27 -1z"/>
<path d="M4290 1693 c-53 -19 -75 -77 -45 -120 23 -32 358 -223 393 -223 60 0
95 82 55 128 -19 21 -334 206 -368 215 -11 3 -27 3 -35 0z"/>
</g>
</svg>
