<?xml version="1.0" standalone="no"?>
<!DOCTYPE svg PUBLIC "-//W3C//DTD SVG 20010904//EN"
 "http://www.w3.org/TR/2001/REC-SVG-20010904/DTD/svg10.dtd">
<svg version="1.0" xmlns="http://www.w3.org/2000/svg"
 width="512.000000pt" height="512.000000pt" viewBox="0 0 512.000000 512.000000"
 preserveAspectRatio="xMidYMid meet">

<g transform="translate(0.000000,512.000000) scale(0.100000,-0.100000)"
fill="#000000" stroke="none">
<path d="M2430 4838 c-78 -30 -171 -124 -195 -198 -9 -30 -21 -59 -25 -63 -3
-4 -211 -70 -461 -146 l-454 -139 -41 38 c-174 160 -443 111 -546 -98 -30 -60
-33 -75 -33 -157 0 -78 4 -97 28 -146 32 -67 109 -142 175 -172 36 -16 67 -21
132 -22 47 0 94 2 104 5 16 4 44 -36 168 -235 81 -132 148 -242 148 -245 0 -3
-44 -30 -97 -60 -185 -104 -468 -325 -559 -435 -83 -102 -101 -219 -51 -330
56 -121 358 -375 621 -521 47 -26 86 -50 86 -53 0 -3 -67 -114 -149 -246 -122
-198 -152 -239 -167 -235 -11 3 -57 5 -104 5 -73 0 -93 -4 -142 -28 -74 -36
-150 -119 -178 -195 -33 -87 -25 -195 20 -280 109 -205 373 -250 544 -92 l41
38 452 -138 c248 -76 456 -141 462 -145 6 -3 11 -14 11 -24 0 -36 54 -122 106
-170 172 -157 439 -107 543 101 17 34 31 69 31 77 0 13 38 28 158 64 86 26
294 90 462 141 l305 93 48 -43 c71 -64 141 -87 247 -82 67 4 96 10 138 32 68
35 128 97 161 166 22 47 26 69 26 145 0 76 -4 98 -26 145 -32 69 -92 131 -161
167 -49 26 -62 28 -165 29 l-113 0 -141 229 c-77 125 -143 233 -145 239 -3 7
34 34 82 60 259 144 565 401 619 519 37 80 37 174 0 254 -52 115 -341 359
-600 508 -55 31 -102 59 -104 61 -2 1 63 110 144 241 l147 238 111 0 c103 0
116 2 165 28 70 37 128 97 161 166 22 47 26 70 26 146 0 76 -4 99 -26 146 -33
69 -91 129 -161 166 -48 25 -63 28 -153 28 -114 0 -159 -16 -237 -84 l-44 -39
-139 43 c-77 24 -268 82 -425 130 -157 47 -300 91 -318 97 -18 5 -36 17 -39
27 -61 178 -180 272 -346 270 -48 0 -90 -7 -127 -21z m239 -162 c110 -77 110
-246 -1 -323 -55 -38 -131 -43 -194 -13 -139 68 -141 279 -3 349 59 30 144 24
198 -13z m-421 -315 c29 -63 118 -145 183 -168 l49 -18 0 -326 0 -326 -106 -7
c-235 -15 -513 -80 -749 -174 l-50 -20 -152 248 c-84 136 -153 250 -153 254 0
4 14 27 30 52 44 64 62 119 63 203 l2 74 415 127 c228 70 422 128 430 129 9 1
24 -19 38 -48z m1087 -80 l420 -128 1 -71 c2 -86 24 -157 68 -214 l33 -43
-155 -252 -156 -251 -50 20 c-236 95 -611 178 -808 178 l-48 0 0 328 0 327 49
18 c65 23 150 101 181 166 13 28 28 51 34 51 6 0 200 -58 431 -129z m-2213
-40 c52 -36 81 -87 86 -152 13 -177 -202 -275 -328 -149 -33 33 -60 94 -60
136 0 68 45 140 109 174 50 28 145 23 193 -9z m3063 10 c112 -50 147 -190 74
-291 -108 -149 -349 -70 -349 115 0 140 147 234 275 176z m-1511 -891 c498
-70 814 -582 651 -1059 -136 -400 -548 -624 -965 -525 -89 21 -232 93 -307
154 -128 103 -236 269 -279 430 -25 91 -25 310 0 400 111 405 489 657 900 600z
m-822 -147 c-107 -122 -173 -240 -219 -390 -25 -81 -27 -101 -27 -263 0 -162
2 -182 27 -263 46 -150 113 -268 219 -389 67 -76 71 -76 -89 -18 -284 103
-567 279 -812 506 -79 73 -101 111 -101 171 0 53 24 87 129 184 199 182 433
334 671 434 55 23 248 94 258 95 2 0 -23 -30 -56 -67z m1713 -72 c218 -104
426 -247 597 -413 79 -76 98 -100 104 -130 13 -75 -2 -107 -84 -188 -235 -230
-546 -423 -856 -529 -65 -23 -119 -41 -120 -41 -1 0 20 24 47 52 111 118 198
274 238 425 32 119 37 311 11 435 -35 167 -105 308 -224 448 l-68 79 117 -40
c64 -22 171 -66 238 -98z m-1775 -1421 c196 -65 495 -120 647 -120 l43 0 0
-330 c0 -290 -2 -330 -15 -330 -59 0 -200 -122 -226 -195 -7 -19 -18 -35 -24
-35 -5 0 -199 58 -430 129 l-420 128 -1 71 c-2 85 -23 152 -67 212 l-33 44
155 252 156 252 50 -20 c27 -12 102 -38 165 -58z m1942 -225 l124 -200 -32
-42 c-44 -57 -68 -134 -69 -217 l0 -69 -420 -128 c-231 -71 -424 -129 -430
-129 -5 0 -23 25 -39 55 -36 69 -113 139 -177 162 l-49 18 0 325 0 326 143 12
c227 20 447 70 661 151 l101 38 32 -51 c17 -28 87 -141 155 -251z m-2607 -292
c103 -72 112 -216 18 -305 -95 -90 -255 -51 -308 74 -29 71 -13 150 44 207 20
20 52 42 71 49 54 17 129 7 175 -25z m3066 14 c24 -13 58 -43 74 -66 40 -57
43 -145 6 -204 -47 -76 -145 -114 -225 -87 -134 44 -181 214 -88 314 62 66
156 83 233 43z m-1529 -447 c99 -67 119 -205 42 -290 -123 -135 -336 -56 -336
125 0 84 45 152 123 185 41 17 133 7 171 -20z"/>
<path d="M2455 3080 c-183 -39 -337 -175 -397 -350 -18 -51 -23 -87 -23 -170
0 -159 41 -260 151 -372 60 -61 122 -101 204 -129 93 -33 259 -33 345 1 289
112 430 426 313 701 -30 72 -77 87 -130 40 -45 -39 -71 -51 -108 -51 -67 0
-130 61 -130 125 1 17 11 52 24 79 20 39 22 53 14 77 -6 16 -19 34 -31 41 -27
14 -180 20 -232 8z m97 -320 c57 -132 222 -198 360 -145 40 16 30 -120 -16
-221 -65 -142 -244 -235 -393 -205 -168 34 -281 145 -313 309 -37 188 92 383
285 427 l50 12 6 -71 c3 -39 12 -87 21 -106z"/>
</g>
</svg>
