<?xml version="1.0" standalone="no"?>
<!DOCTYPE svg PUBLIC "-//W3C//DTD SVG 20010904//EN"
 "http://www.w3.org/TR/2001/REC-SVG-20010904/DTD/svg10.dtd">
<svg version="1.0" xmlns="http://www.w3.org/2000/svg"
 width="512.000000pt" height="512.000000pt" viewBox="0 0 512.000000 512.000000"
 preserveAspectRatio="xMidYMid meet">

<g transform="translate(0.000000,512.000000) scale(0.100000,-0.100000)"
fill="#000000" stroke="none">
<path d="M2826 5099 l-26 -20 0 -354 0 -354 26 -20 c35 -28 67 -26 101 3 l28
24 0 347 0 347 -28 24 c-34 29 -66 31 -101 3z"/>
<path d="M1603 4780 c-32 -13 -56 -55 -49 -84 5 -22 315 -565 338 -593 32 -39
109 -18 129 35 13 34 18 24 -172 353 -173 300 -185 314 -246 289z"/>
<path d="M4081 4776 c-14 -8 -87 -124 -192 -307 -183 -316 -184 -321 -133
-366 30 -27 64 -29 93 -5 26 21 340 566 348 602 10 54 -66 105 -116 76z"/>
<path d="M2653 4089 c-252 -39 -509 -147 -715 -302 -97 -73 -260 -242 -332
-346 -116 -165 -207 -377 -253 -591 -28 -131 -26 -479 4 -612 32 -143 67 -239
133 -373 133 -268 346 -496 596 -643 l64 -37 0 -529 c0 -509 1 -531 20 -571
35 -73 123 -105 191 -69 17 8 135 104 262 213 128 108 237 200 244 204 8 5
101 -68 253 -197 132 -113 253 -212 270 -221 67 -35 159 -2 191 68 17 40 19
73 19 573 l0 531 26 12 c100 45 312 215 411 330 410 475 502 1129 237 1691
-172 364 -518 673 -894 800 -165 56 -265 72 -470 75 -107 2 -223 0 -257 -6z
m442 -164 c512 -83 939 -448 1100 -939 90 -276 90 -594 0 -864 -164 -490 -580
-848 -1088 -938 -121 -22 -342 -22 -467 0 -580 103 -1035 560 -1135 1140 -19
113 -20 347 0 457 103 591 558 1045 1145 1144 105 18 336 18 445 0z m-698
-2845 c280 -99 674 -97 973 5 l70 24 0 -465 c0 -385 -2 -464 -13 -457 -8 4
-114 94 -236 198 -127 109 -240 198 -266 209 -75 33 -95 21 -365 -209 -132
-113 -242 -205 -245 -205 -3 0 -5 210 -5 466 0 440 1 466 18 459 9 -4 41 -15
69 -25z"/>
<path d="M2645 3660 c-353 -76 -642 -306 -795 -633 -137 -293 -136 -658 4
-953 57 -119 112 -200 205 -296 221 -233 500 -352 821 -351 301 0 563 108 783
322 171 166 279 367 323 600 19 101 22 297 5 391 -79 438 -396 787 -822 906
-80 22 -119 27 -264 30 -142 3 -185 1 -260 -16z m401 -151 c289 -51 553 -246
688 -509 288 -558 -13 -1228 -621 -1386 -124 -33 -313 -37 -438 -10 -330 72
-606 316 -716 633 -68 196 -68 439 -1 633 112 322 384 561 723 635 77 16 283
19 365 4z"/>
<path d="M2815 3290 c-46 -19 -68 -60 -130 -252 l-62 -193 -219 -5 c-194 -4
-222 -7 -247 -24 -59 -40 -80 -140 -40 -194 11 -15 89 -77 173 -139 84 -62
157 -116 162 -121 6 -6 -13 -80 -51 -200 -34 -104 -61 -205 -61 -223 0 -80 92
-151 169 -131 20 5 108 61 196 125 88 64 163 117 166 119 4 2 77 -48 162 -110
186 -135 215 -149 272 -132 67 20 105 68 105 133 0 19 -27 118 -60 220 -33
101 -60 187 -60 190 0 3 64 52 143 108 176 127 205 153 218 203 14 51 -10 117
-54 148 -30 22 -44 23 -250 28 l-219 5 -63 195 c-57 172 -68 199 -99 228 -30
27 -43 32 -83 31 -27 0 -57 -4 -68 -9z m116 -355 c85 -263 65 -248 329 -255
l195 -5 -138 -99 c-223 -160 -221 -155 -142 -397 31 -94 55 -172 53 -174 -2
-2 -53 33 -113 77 -172 126 -194 138 -241 138 -45 0 -62 -10 -248 -147 -55
-40 -101 -71 -104 -69 -2 3 22 81 53 175 79 242 81 238 -142 398 l-137 98 194
5 c266 7 242 -13 341 287 24 73 44 131 46 130 1 -2 25 -75 54 -162z"/>
<path d="M693 3870 c-49 -20 -67 -98 -30 -128 33 -27 576 -334 599 -339 21 -4
34 1 59 26 26 27 30 37 25 64 -4 17 -12 37 -19 44 -19 19 -588 343 -601 342
-6 0 -21 -4 -33 -9z"/>
<path d="M4829 3774 c-101 -58 -234 -135 -295 -170 -141 -81 -162 -117 -104
-176 24 -24 37 -29 58 -25 27 5 575 317 599 340 7 7 15 27 19 44 5 27 1 37
-24 63 -17 16 -39 30 -50 30 -10 0 -102 -48 -203 -106z"/>
<path d="M897 1796 c-62 -22 -113 -62 -133 -103 -17 -34 -19 -57 -16 -203 2
-130 0 -174 -12 -209 -21 -59 -77 -132 -127 -166 -36 -26 -42 -27 -50 -13 -5
9 -26 27 -47 40 -33 21 -51 23 -182 26 -204 6 -261 -14 -301 -102 -17 -38 -19
-74 -19 -483 0 -288 4 -451 11 -470 14 -38 57 -83 96 -99 23 -10 78 -14 188
-14 134 0 161 3 194 19 20 11 43 26 50 35 12 14 16 14 45 -2 28 -15 76 -17
452 -20 407 -3 423 -2 477 18 81 30 150 96 191 183 105 224 160 535 127 709
-16 79 -64 171 -110 209 -74 61 -113 72 -271 78 l-145 6 -6 95 c-17 247 -112
424 -252 465 -62 18 -110 18 -160 1z m158 -189 c55 -55 82 -140 95 -299 10
-122 21 -157 62 -195 38 -36 73 -43 209 -43 147 0 183 -10 222 -61 35 -47 47
-99 47 -202 0 -102 -28 -251 -71 -383 -42 -127 -80 -189 -129 -214 -39 -20
-54 -21 -438 -18 l-397 3 -33 23 -32 23 0 337 0 337 53 29 c74 42 188 159 220
227 41 88 49 140 45 304 l-3 149 25 13 c47 24 79 16 125 -30z m-625 -1022 l0
-425 -130 0 -130 0 0 418 c0 230 3 422 7 425 3 4 62 7 130 7 l123 0 0 -425z"/>
</g>
</svg>
