<svg version="1.2" xmlns="http://www.w3.org/2000/svg" viewBox="0 0 1800 956" width="1800" height="956">
	<title>Logo_Rectangulo_1_</title>
	<style>
		.s0 { fill: #b3d0bc } 
		.s1 { fill: #f5f5f5 } 
	</style>
	<g>
		<path class="s0" d="m380.2 73.1c-0.7 0.6-9.9 3.3-11.4 3.4-2.1 0.1-10.1 5.8-15.5 11.1-12.8 12.7-17.9 30.7-13.8 48.3 4 16.9 16.9 31 33 36.1 2.2 0.7 4.5 1.5 5 1.9 0.6 0.3 2 0.4 3.2 0.3 1.1-0.2 2.4 0.1 2.6 0.6 0.8 1.1 14.5-0.4 21.1-2.3 12.8-3.8 23.5-12.7 29.4-24.7 4.6-9.4 5.6-11.9 5.3-13.2-0.1-0.5 0.1-1.6 0.4-2.5 0.8-1.9 0.9-14.9 0.2-17.1-2.2-6.5-2.6-8.3-2.2-9 0.3-0.4-0.6-2.4-2-4.4-1.4-2-2.5-4.1-2.5-4.6 0-1.7-11.1-12.8-15.8-15.8-8.2-5.3-14.9-7.4-26-8.1-5.6-0.3-10.6-0.3-11 0z"/>
		<path class="s1" d="m924.2 167.7l-6.1 9.8 4.2 0.3c4.1 0.3 4.4 0.1 11-7 3.7-4 7.7-8.5 8.8-10.1l2-2.7h-6.9-6.9z"/>
		<path class="s0" d="m457.3 161.3c-0.3 0.5-1.3 0.7-2.2 0.5-3.1-0.8-11.5 4.4-13.6 8.6-1.1 2.1-4.2 5.7-6.8 8-4.3 3.6-5.4 4.1-11.2 4.4l-6.5 0.4v27.9c0 19.2 0.3 28 1.1 28.5 0.6 0.3 3.1 0.8 5.6 1 2.5 0.2 5.1 0.8 5.8 1.4 0.6 0.5 1.5 0.7 1.8 0.4 0.3-0.4 1.4-0.3 2.4 0.1 1 0.5 2.2 0.7 2.7 0.6 0.5-0.1 1.6 0.1 2.5 0.5 0.9 0.4 2.6 0.6 3.8 0.5 1.1-0.1 2.3 0.1 2.6 0.6 0.3 0.4 5.2 0.6 10.9 0.3 8.1-0.4 11.2-1 14.7-2.8 3-1.6 4.7-2 5.5-1.2 0.7 0.5 1.5 0.7 1.8 0.5 0.3-0.3 1.8 0 3.4 0.6 3.4 1.3 13.2 1.2 18.6-0.2 5-1.3 9.7-5.5 12-10.6 2-4.6 2.7-5 6.1-3.1 1.2 0.7 2.9 1.3 3.8 1.5 0.9 0.1 2.9 0.8 4.5 1.4 1.6 0.7 3.3 1.1 3.8 1 0.5-0.1 1.6 0.1 2.5 0.4 0.9 0.4 6.2 0.6 11.9 0.5 17.4-0.2 27.1-4.7 32.4-14.7 1.7-3.2 1.7-3.2 8-2.8 3.5 0.3 6.8 0.5 7.3 0.6 2.9 0.5 16.7-2.5 21.3-4.6 5.4-2.5 10-8.1 9.4-11.6-0.3-2 1.3-3.3 2.8-2.4 0.9 0.6 6.3 1.1 15.4 1.5 4.2 0.2 21.7-2.2 29.6-4.1 10.6-2.6 23.2-8.5 29-13.7l4.5-4-79-0.5c-90.9-0.5-94.3-0.8-130-9.7-19.6-4.9-37.1-7.5-38.2-5.7z"/>
		<path class="s0" d="m309 161.3c-0.3 0.3-2.8 0.7-5.6 1-2.8 0.2-5.5 0.6-6 0.9-0.9 0.6-6.5 1.9-9.4 2.3-0.8 0.1-2.8 0.8-4.5 1.4-1.6 0.7-4.4 1.4-6.1 1.5-1.7 0.2-3.6 0.6-4.3 1-0.7 0.5-1.5 0.5-1.8 0.2-0.3-0.3-1.1-0.2-1.7 0.3-1.5 1.2-21.3 4.4-23.7 3.8-1-0.3-2.2-0.1-2.5 0.5-0.3 0.5-2.3 0.8-4.3 0.7-2-0.2-4.2 0-4.9 0.5-1.4 0.8 2.2 0.8-88.5 1.5l-71.9 0.6 2.4 2.2c3.1 2.9 13 9.4 14.8 9.8 0.8 0.2 3.3 1.1 5.5 2.1 2.2 1 5 1.9 6.3 2.1 1.2 0.2 3.5 0.9 5 1.5 1.5 0.6 3.4 1 4.4 0.9 0.9-0.1 1.9 0.3 2.2 0.8 0.4 0.6 1.3 0.8 2.1 0.4 0.8-0.3 2.3-0.2 3.3 0.2 0.9 0.4 3.7 0.7 6.2 0.6 2.5-0.1 5.5 0.2 6.8 0.6 1.3 0.5 6.2 0.4 11.5-0.3 9.8-1.2 11.7-0.8 11.7 2.8 0 2.7 1.9 5.9 4.9 8.3 3.2 2.5 6.8 4.4 7.4 3.9 0.2-0.3 1.7 0.1 3.3 0.7 2.5 0.9 4.9 1.3 12.9 1.9 0.6 0.1 4.3-0.2 8.2-0.6 6.6-0.6 7.3-0.5 8 1.2 2.1 5.8 5.4 9.3 12.1 12.7l7 3.5 14.3-0.2c12.3-0.1 15.3-0.5 20.4-2.5 9.7-3.7 9.1-3.7 11.5 1.1 2.7 5.2 5.6 8.6 9 10.2 3.9 1.9 17.1 2 23.4 0.2 5.5-1.6 5.6-1.6 9.3 0.7 4.9 3.1 3.7 2.9 15.3 2.7 7-0.1 30.6-3.6 37.3-5.6 1.6-0.5 1.7-2.7 1.7-28.5v-27.9h-5c-8.5 0-14.9-4.2-20.7-13.3-3.2-5.1-9.3-7.8-19.2-8.4-4.2-0.3-7.8-0.3-8.1 0z"/>
		<path class="s1" d="m915 233v51h2.3c1.2 0 4.6-0.3 7.5-0.6l5.2-0.7v-50.3-50.4h-7.5-7.5z"/>
		<path class="s1" d="m1013 233v51h2.3c1.2 0 4.6-0.3 7.5-0.6l5.2-0.7v-50.3-50.4h-7.5-7.5z"/>
		<path class="s1" d="m372 254.9v71.9l8.6 0.7c4.7 0.4 12.1 0.4 16.5 0l7.9-0.7v-71.9-71.9h-16.5-16.5z"/>
		<path class="s1" d="m795 184.3c-5 1.6-13.6 10.3-14.9 15.2-0.7 2.5-1.1 15.5-1.1 34.5 0.1 32.8 0.3 34.6 5.4 41.3 7.7 10.1 27 11.5 37.1 2.6 5.6-5 9.5-16 8-22.9l-0.7-3h-7.4-7.4v5.4c0 4.7-0.4 5.7-3.2 8.5-4.4 4.3-9.3 4.3-13.4 0l-2.9-3v-29.4-29.4l2.9-3c4.1-4.3 9.5-4.3 13.7-0.2 2.5 2.6 2.9 3.7 2.9 8.5v5.6h8.1 8.1l-0.7-6.8c-0.7-7.3-3.4-14.4-6.8-18.1-3.8-4.1-11.5-7.1-18.2-7-3.3 0.1-7.6 0.6-9.5 1.2z"/>
		<path class="s1" d="m961.9 184.3c-4.5 1.7-7 3.5-10.1 7.2-6 7.1-5.8 5.8-5.8 51v41.5h7.5 7.5v-39c0-32.9 0.2-39.6 1.5-42 3-5.8 9.5-6.7 14.7-2.1l3.3 2.9 0.3 40.1 0.3 40.1h7.4 7.5v-39.6c0-25.5-0.4-41.1-1.1-43.9-1.4-5.4-6.8-11.9-12.3-14.7-5.1-2.6-15.6-3.4-20.7-1.5z"/>
		<path class="s1" d="m1059.6 184.6c-5.9 2.1-9.8 5.6-12.9 11.2l-2.8 5.1 0.3 33.4 0.3 33.4 3 4.9c3.9 6.3 10.4 10.3 17.7 11.1 16.9 1.7 28.8-8.6 28.8-24.9v-6.8h-7.5-7.5v5c0 4.1-0.5 5.5-3.1 8.5-2.4 2.7-3.9 3.5-6.6 3.5-4.5 0-6.9-1.4-8.8-5-1.2-2.4-1.5-7.8-1.5-30.5 0-22.7 0.3-28.1 1.5-30.5 1.8-3.5 4.3-5 8.5-5 6.4 0 10 4.5 10 12.5v4.5h8 8l-0.7-6.3c-1.2-12.3-5.1-18.9-13.5-23.1-6-3-14.7-3.4-21.2-1z"/>
		<path class="s1" d="m1129.8 184c-5 1.5-10.3 5.1-12.7 8.5-4.9 7.2-5 8.4-5.1 51.2v40.3h8 8l0.2-16.8 0.3-16.7h9.5 9.5l0.3 16.7 0.2 16.8h7.5 7.5v-39.3c0-43.3-0.3-46-6-52.9-4.4-5.3-12.1-8.8-18.9-8.7-3.1 0-6.8 0.4-8.3 0.9zm14.3 16.9l3 3-0.3 15.3-0.3 15.3h-9.5-9.5v-15.3-15.4l3.3-2.9c4.4-4 9.3-4 13.3 0z"/>
		<path class="s1" d="m847.3 208.2c0.4 12.8 0.7 35.6 0.7 50.5v27.3h25 25v-7.5-7.5l-17.2-0.2-17.3-0.3-0.3-42.8-0.2-42.7h-8.2-8.1z"/>
		<path class="s0" d="m445.2 267.1c-0.4 0.3-2.8 1.3-5.3 2.3-2.5 0.9-6.4 3.2-8.5 5-6.9 5.9-11.9 19.4-9.1 24.4l1.3 2.3 4.2-3c4.6-3.4 6.4-2.6 3.7 1.6l-1.7 2.6 6.4-0.5c7.5-0.6 10.2-1.9 21-9.9 6.9-5.1 8.6-5.9 12.3-5.9 7.5 0 13.5 6.8 13.5 15.2-0.1 5.9-1.6 9-7.8 15.2-4.7 4.8-19.2 13.9-19.2 12 0-0.3-0.7-0.1-1.5 0.6-0.8 0.7-1.5 0.9-1.5 0.5 0-0.4-0.7-0.1-1.7 0.6-0.9 0.8-1.7 1.3-1.7 1.1-0.1-0.2-1.4 0.2-3 0.8-1.6 0.6-3.1 0.8-3.4 0.5-0.3-0.2-1.1 0-1.8 0.6-0.7 0.6-3.1 1.2-5.2 1.4-2.2 0.1-4.4 0.5-5 0.9-0.6 0.3-4.3 0.8-8.2 1.1-4 0.2-7.5 0.6-7.8 0.9-0.3 0.3-3 0.6-6.1 0.6-4.6 0-13.1 0.8-26.6 2.5-1.1 0.1-2.7 0.5-3.5 0.8-0.8 0.4-4.9 1.8-9 3.3-10.4 3.7-17.7 7.5-25.3 13.3-9 6.7-12.1 10.4-16.5 19-3.4 6.9-3.7 8.2-3.6 15.5 0.1 16.5 8.5 29.4 24.6 38.1 2.7 1.4 5 2.5 5.3 2.5 0.3 0 0.7 0.1 1 0.1 0.3 0.1 1 0.3 1.5 0.4 0.6 0.1 1.2 0.4 1.5 0.5 0.3 0.1 1 0.4 1.5 0.5 0.6 0.1 1.2 0.4 1.5 0.5 0.3 0.1 1 0.4 1.5 0.5 0.6 0.1 1.2 0.4 1.5 0.5 0.3 0.1 1 0.4 1.5 0.5 0.6 0.1 1.1 0.3 1.3 0.4 0.1 0.2 1.3 0.4 2.7 0.6 1.4 0.2 3.9 0.9 5.5 1.6 1.7 0.7 3.3 1.3 3.8 1.4 0.4 0.2 0.8 0.3 1 0.4 0.1 0.2 1.3 0.4 2.7 0.6 1.4 0.2 3.9 0.9 5.5 1.6 1.7 0.7 3.3 1.1 3.8 1.1 0.4-0.1 2.4 0.5 4.5 1.4 2 0.9 4.3 1.8 5 2 3.1 0.6 10.3 5.7 13.7 9.6 6.1 7.2 7.9 11.5 7.9 18.8-0.1 8.3-3.3 14.7-10.7 21.7-4.6 4.4-17.7 12.4-17.7 10.8 0-0.3-1.1 0.2-2.5 1.1-1.4 0.9-2.5 1.3-2.5 0.9 0-0.4-0.6-0.3-1.2 0.3-1.8 1.4-13.8 6.2-13.8 5.5 0-0.3-0.8 0.1-1.8 1-1 1-2.1 1.5-2.4 1.2-0.3-0.3-1.1 0.1-1.8 1-0.7 0.8-1.8 1.5-2.5 1.5-2.1 0-9.7 8.3-11.8 13-1.6 3.5-2.1 6.5-2.1 13.5 0 8.2 0.3 9.6 3.6 16.5 3.3 7 12.6 21 16.8 25.4 1.8 1.8 1.9 1.8 5.7-0.4 2.1-1.3 3.9-2.4 4-2.5 0.1 0-1.5-3.5-3.7-7.8-2.1-4.2-3.6-7.7-3.4-7.7 0.3 0-0.3-1.1-1.1-2.4-0.9-1.3-1.7-4-1.9-6-0.2-2-0.6-3.9-1-4.3-1.3-1.3-0.6-13.8 0.9-15.9 0.8-1.2 1.2-2.4 0.9-2.6-1-1 8.9-9.7 14.4-12.6 3.1-1.7 12.3-5.3 20.3-8 17.4-6 25.7-10 29.3-14.3 3.1-3.6 6.8-10.5 7.3-13.3 0.2-1.1 0.9-3.1 1.6-4.5 1.2-2.5 0.8-16.2-0.6-21.9-1.5-5.9-8.8-12.6-21.2-19.2-4.4-2.4-10.5-5.8-13.5-7.5-3-1.8-11.8-6.5-19.4-10.5-15.1-7.8-19.9-10.7-26.3-15.8-4.5-3.6-11.4-11.5-11.7-13.5-0.1-0.7-0.7-2.2-1.4-3.4-1.4-2.6-1.6-6.9-0.2-7.8 0.5-0.3 0.7-1.1 0.4-1.8-0.9-2.4 5.4-9.3 11.3-12.5 9.2-4.8 21.9-7.6 54.3-11.7 27.9-3.6 42.2-8.7 57.1-20.1 8.5-6.5 21.9-22.8 21.9-26.6 0-0.7 0.6-2.4 1.3-3.8 0.8-1.5 1.2-5.3 1-9.5-0.3-10.3-0.7-12.6-3-17-3.7-7.1-9.9-11.4-21.3-15-5.4-1.7-28.5-3.5-29.8-2.4zm-2.8 11.1c2.4 3.8-9.2 10.8-12.9 7.8-2.4-2-1.4-5.2 2.5-7.8 3.9-2.6 8.7-2.6 10.4 0z"/>
		<path class="s0" d="m306.4 268.2c-0.3 0.5-1.2 0.7-1.9 0.4-0.7-0.2-1.6-0.2-2 0.2-0.4 0.4-1 0.7-1.3 0.7-1.8 0.1-13 5.9-15 7.8-4.9 4.6-7.5 11.5-8 21.2-0.3 7.5 0 10 1.8 14.8 2.5 6.7 11.8 19.7 17.7 24.7 6 5.1 17.8 13 20.1 13.5 1.2 0.2 3.1 0.9 4.4 1.6 1.3 0.7 3.2 1.4 4.2 1.6 1.1 0.2 2.2 0.5 2.4 0.8 0.2 0.2 3.1-1.8 6.3-4.5 6.2-5.1 18.9-13 21-13 3.3 0-0.6-1-11.3-2.9-20.8-3.7-34.5-9.9-43.8-19.7-5.6-5.9-8.9-15.2-6.2-17.8 0.4-0.4 0.7-1.1 0.8-1.4 0.6-5.3 6.6-10.2 12.3-10.2 3.3 0 6.8 2 17.6 10.1 4.5 3.4 8.4 5.3 10.2 5 0.6-0.1 1.4 0.2 1.7 0.7 0.3 0.5 1.9 0.7 3.6 0.4 2.9-0.4 3-0.6 1.5-2.2-2.7-3 0.2-3.4 3.5-0.6 2.6 2.2 3.4 2.3 6 1.4q3-1.1 3.6-3.6c0.3-1.5 0.7-3.2 0.9-3.9 0.2-0.7 0-1.5-0.6-1.8-0.5-0.4-0.9-1.2-0.8-1.8 0.1-0.7-0.1-2-0.6-3-0.7-1.7-0.9-1.7-2.6-0.1-3.4 3.1-13-1.1-12.3-5.4 0.1-0.6 0.2-1.7 0.3-2.2 0.2-1.4 5.4-1.3 6.9 0.2 0.7 0.7 1.2 0.8 1.2 0.3 0-0.4 0.9 0 2 1 3.9 3.5 1.9-0.2-2.2-4.2-8-7.7-11.4-8.8-27.1-8.9-7.6-0.1-14 0.3-14.3 0.8z"/>
		<path class="s1" d="m915 362v51h2.3c1.2 0 4.6-0.3 7.5-0.6l5.2-0.7v-50.3-50.4h-7.5-7.5z"/>
		<path class="s1" d="m1282 362v51h2.3c1.2 0 4.6-0.3 7.5-0.6l5.2-0.7v-50.3-50.4h-7.5-7.5z"/>
		<path class="s1" d="m797 313c-6.4 2-11.5 5.7-14.5 10.4l-3 4.9-0.3 42.4-0.3 42.3h7.5 7.6l0.2-25.3 0.3-25.2 9.8-0.3 9.7-0.3 0.1 24.3c0.1 13.4 0.1 24.9 0 25.5-0.1 1 2 1.3 7.9 1.3h8l-0.2-41.3-0.3-41.2-2.4-4.9c-2.5-5-8.4-10-14.4-12.3-3.6-1.3-12-1.5-15.7-0.3zm13.9 17.1c2.8 2.8 3.1 3.7 3.1 9.4 0 4.1-0.4 6.5-1.2 6.8-2.4 0.8-16.3 0.4-17.5-0.6-0.8-0.5-1.3-3.2-1.3-6.3 0-4.5 0.5-5.9 3.1-8.9 4.2-4.8 9.3-4.9 13.8-0.4z"/>
		<path class="s1" d="m860.5 314.1c-5.1 2.5-9.2 6.4-11.8 11.4-2 3.6-2.2 5.5-2.2 19.5 0 14.1 0.2 15.9 2.2 19.6 4.1 7.7 13 13.4 20.7 13.4 4.8 0 9.2 2.5 11 6.3 2.1 4.5 1.3 7.9-2.6 11.2-4.5 3.8-8.3 3.3-12.8-1.5-3.7-4-3.7-4-11.4-4h-7.6l0.6 2.7c1.9 8.1 6.3 14.1 12.8 17.6 5.5 2.9 18.4 3.1 23.6 0.3 10.7-5.6 15.9-16.9 13.1-28.3-2.7-10.7-9.8-16.7-21.8-18.4-5.7-0.7-7.3-1.4-9.5-3.9-2.7-3-2.8-3.3-2.8-14.9 0-11.4 0.1-12.1 2.6-15 2.1-2.6 3.3-3.1 6.8-3.1 6.1 0 9.5 3.8 10.3 11.4l0.6 5.6h7.6 7.7l-0.8-7.7c-1.4-12.9-5.8-19.3-15.7-22.8-6.1-2.1-15.7-1.9-20.6 0.6z"/>
		<path class="s1" d="m959.5 314.4c-5.5 2.5-10 7.1-12.3 12.6-2.1 5.1-2 31.1 0.2 36.1 3.5 8.2 12.7 14.9 20.4 14.9 7.1 0 13.2 5.2 13.2 11.1 0 1.1-1.5 3.6-3.4 5.5-4.8 4.8-8.7 4.7-13.7-0.6-3.8-3.9-3.9-4-10.9-4-6.6 0-7 0.1-7 2.3 0 1.3 1.2 4.7 2.6 7.5 6.1 12.3 22.4 16.8 35.1 9.7 8.1-4.5 12.2-11.4 12.3-20.9 0-7.6-1.9-12.6-7-17.6-4.5-4.5-9.9-7-15.4-7-4 0-9.2-2.5-11.1-5.4-1.4-2.1-1.6-4.6-1.3-14.5 0.3-11 0.5-12.1 2.7-14.5 3.3-3.5 9.8-3.6 13.7-0.3 2.3 2 2.8 3.4 3.2 8.5l0.4 6.2h7.9 7.9l-0.5-4c-0.3-2.2-0.7-5.8-1-8.1-0.7-4.9-3.4-10.6-6.7-13.6-6.9-6.5-20.1-8.3-29.3-3.9z"/>
		<path class="s1" d="m1013 319v7h7.8c4.7 0 8.3 0.5 9 1.2 0.9 0.9 1.2 11.9 1.2 43.5v42.3h7.8 7.7v-43.2-43.3l8.3-0.3 8.2-0.3v-6.9-7h-25-25z"/>
		<path class="s1" d="m1079.3 336.2c0.4 13.3 0.7 35.8 0.7 50v25.8h25 25v-7-7l-17.1-0.2-17.2-0.3v-9.5-9.5l17.1-0.3 17.2-0.2v-7.5-7.5l-16.7-0.2-16.8-0.3v-18-18l16.8-0.3 16.7-0.2v-7-7h-25.7-25.6z"/>
		<path class="s1" d="m1162.8 313.4c-5.3 1.9-8.2 4-11.3 8-5.2 6.8-5.5 9.6-5.5 52.3v39.3h7.8 7.7l-0.3-33.7c-0.4-41.1 0-45.6 3.8-49.5 3.3-3.3 7.7-3.7 11.7-1.1 5.1 3.4 5.3 5.1 5.3 46.3v38h7.5 7.5v-38.5c0-24-0.4-40.3-1.1-43.5-2.3-10.7-11.5-18.1-23.2-18.6-3.4-0.2-7.9 0.3-9.9 1z"/>
		<path class="s1" d="m1226.5 314.8c-6.4 3.1-10.7 8-12.5 14.3-1.5 5.3-1.2 63.6 0.4 68 2 5.6 6.3 10.6 11.4 13.1 6.5 3.2 18.8 3.2 24.8 0.1 8.9-4.7 14.9-17 12.9-26.3l-0.7-3h-7.4-7.4v5.4c0 4.6-0.4 5.9-2.9 8.5-5.6 6-15.1 3-16.7-5.4-0.3-1.6-0.4-15-0.2-29.7l0.3-26.7 2.9-3c4.1-4.3 9.5-4.3 13.7-0.2 2.5 2.6 2.9 3.7 2.9 8.5v5.6h8.1 8.1l-0.7-6.8c-1.6-16.2-10.6-25-25.5-25.2-4 0-7.1 0.8-11.5 2.8z"/>
		<path class="s1" d="m1328.2 313.9c-5.5 1.9-8.8 4.3-10.4 7.6-0.5 1.1-1.8 3.6-2.9 5.5-1.8 3.3-1.9 5.9-1.9 44.7v41.3h8.1 8.2l-0.4-16.8-0.4-16.7h9.5 9.5l0.3 16.7 0.2 16.8h8.1 8.1l-0.7-41.3-0.6-41.2-2.5-5.3c-5.4-11.2-18.8-15.9-32.2-11.3zm16.6 16.1l3.3 2.9-0.3 15.3-0.3 15.3h-9.5-9.5l-0.3-14.8-0.3-14.8 3.5-3.5c4.5-4.5 8.8-4.6 13.4-0.4z"/>
		<path class="s1" d="m1379.7 314.7c-0.2 0.5-0.3 1.5-0.2 2.3 0.1 0.8 0.3 23.2 0.3 49.7l0.2 48.3h25 25v-7.5-7.5l-17.2-0.2-17.3-0.3-0.3-42.8-0.2-42.7h-7.5c-4 0-7.6 0.3-7.8 0.7z"/>
		<path class="s0" d="m435.3 370.3c-0.3 0.4-1.2 0.7-2.1 0.6-1-0.1-2.4 0.1-3.3 0.5-0.9 0.4-4.6 0.8-8.3 0.9-3.6 0.1-6.6 0.4-6.6 0.6 0 0.2 1.9 2 4.1 3.9 7.3 6.3 8.7 13.2 4.3 22-2.6 5.2-11.9 14.6-18.1 18.4-1.8 1.1-3.3 2.3-3.3 2.7 0 0.4 1.5 1.5 3.3 2.4 1.7 1 5 2.8 7.2 4.2 9.4 5.6 10.2 5.8 15.9 3.2 8.7-4 14.8-9.7 18.8-17.3 2-3.8 3.6-7.1 3.7-7.4 0-0.3 0.5-1.9 1.1-3.5 1.1-2.6 1.2-7.8 0.6-16.5-0.2-1.4-0.8-3.5-1.4-4.6-0.6-1.2-1-2.3-0.7-2.5 0.2-0.2-0.9-2.2-2.4-4.4-2.5-3.7-3-4-7.5-4-2.6 0-5 0.4-5.3 0.8z"/>
		<path class="s1" d="m384.5 377.4c-0.5 0.3-3.6 1.2-6.7 2.1l-5.8 1.6v11.3c0 10.5 0.2 11.4 2.3 13.4 1.3 1.2 2.6 2.2 3 2.2 0.4 0 3 1.4 5.8 3.1 5.8 3.6 6 3.5 16.1-2.9l5.8-3.7v-11.7-11.7l-5.2-1.6c-5.5-1.7-13.6-2.7-15.3-2.1z"/>
		<path class="s1" d="m911.8 423.2c-0.9 1.3-2.7 4.7-4.2 7.5l-2.6 5.3h2.9c2.5 0 3.6-0.9 6.6-5.4 2-3 4.2-6 5-6.6 2.5-2.1 1.7-3-2.4-3-2.9 0-4.2 0.6-5.3 2.2z"/>
		<path class="s0" d="m619.3 432.3c-0.3 0.4-1.5 0.7-2.6 0.6-1.2-0.1-3.5 0.3-5 0.9-1.5 0.7-3.1 1.1-3.5 1-2.2-0.7-14.5 7.5-20.7 13.7-15 15-26.6 44.1-32.1 80-1.9 12.5-3.5 73.4-2.2 85 0.4 3.8 1.2 13.3 1.8 21 0.6 7.7 1.7 20.5 2.5 28.5 3.4 32.4 4 68.8 1.5 87.4-2 15.2-7.5 27.2-17.6 38.4-4.9 5.5-14.9 13.1-17.6 13.6-0.7 0.1-2.2 0.7-3.3 1.3-3.1 1.7-14.6 4.5-16.1 3.9-0.7-0.3-1.6-0.1-2 0.5-0.3 0.5-2.7 0.9-5.3 0.8-2.6-0.1-5.2 0-5.7 0.3-1.5 1-16.8-1-22.1-2.8-15.4-5.1-36.4-19.8-46.5-32.4-4.7-5.8-10.4-15-9.4-15 0.4 0-0.1-1.1-1-2.5-0.9-1.4-1.3-2.5-0.9-2.5 0.5 0 0.1-0.8-0.7-1.8-2.2-2.4-6.8-17-6.8-21.4 0-2 0.5-4 1-4.3 0.6-0.4 0.8-1.1 0.4-1.6-0.3-0.5 0-1.6 0.6-2.4 0.7-0.8 0.9-1.5 0.5-1.5-0.4 0-0.2-0.6 0.4-1.3 0.6-0.8 0.8-1.7 0.5-2-0.3-0.3-0.2-1.1 0.2-1.8 0.4-0.7 0.9-2.3 1-3.4 0.1-1.2 1-3.9 2-6.1 0.9-2.1 1.6-4.2 1.5-4.7 0-0.4 0.6-2.4 1.6-4.5 0.9-2 1.7-4 1.8-4.5 0.2-0.4 0.3-0.8 0.5-1 0.1-0.1 0.3-1.1 0.5-2.2 0.4-2.9 3.4-10.6 4.6-12.2 0.6-0.7 0.8-1.3 0.4-1.3-0.4 0-0.2-0.7 0.5-1.5 0.7-0.8 1-1.5 0.6-1.5-0.7 0 5.2-16 6.6-17.7 0.6-0.7 0.7-1.3 0.2-1.3-0.4 0-0.3-0.5 0.4-1.2 0.7-0.7 1.2-1.7 1.2-2.2 0-0.6-0.5-0.5-1.2 0.2-1.2 1.2-6 1.7-7 0.7-0.3-0.3 0.5-3.1 1.8-6.3 1.2-3.1 2.4-8 2.5-10.9 0.6-10.9-10.9-27.2-26.9-38.1l-8.8-6-3.2 2c-3.9 2.5-4.1 4.3-0.4 6.3 2.6 1.5 3.7 2.2 11.8 7.6 7.4 4.9 16.3 14.5 19 20.3 2.2 4.8 2.5 6.7 2.3 14.7-0.3 10.3-1 11.2-6.5 8.5-1.9-0.9-3.8-1.6-4.3-1.6-0.4 0-1.1 4.9-1.5 10.9-0.9 15-3.2 32.6-5.1 38.8-1.6 5.4-6 11.7-7.5 10.8-0.5-0.3-1.1-0.1-1.5 0.5-0.3 0.5-3.4 1-6.9 1-7.9 0-12-2.5-15.8-9.5-1.5-2.7-2.6-5.2-2.5-5.5 0.1-0.3-0.5-1.6-1.2-2.8-0.7-1.3-1-2.6-0.7-2.9 0.3-0.4 0.2-1.1-0.3-1.7-1.5-1.8-4.2-17.4-4.8-28.4-0.3-5.6-1-10.2-1.5-10.2-0.4 0-1.7 0.6-2.8 1.2-2.8 1.8-4.2 0-3.1-4 0.6-1.9 0.6-3.4 0-3.7-1.9-1.2-0.9-9.8 1.7-15.2 3.4-6.8 18-20.2 24.7-22.6 0.8-0.3 0.4-1.3-1.1-2.9-1.2-1.3-1.9-2.7-1.6-3.1 1.5-1.5-2.8-1.8-4.5-0.3-1 0.9-2.3 1.6-3 1.6-0.7 0-5.2 3.9-10 8.7-11.3 11.3-14.5 17.5-13.9 26.5 0.2 3.6 1.4 8.2 2.6 10.7 1.2 2.4 1.9 4.8 1.6 5.3-0.3 0.5-2.4 0.6-4.5 0.3-3.5-0.6-3.9-0.5-3.9 1.5 0 7 7.9 26.9 23.5 59 6.7 14 14.2 30.4 16.5 36.5 12.2 31.4 24.6 48.6 47.4 65.5 5.1 3.7 18 10.8 19.6 10.7 0.3 0 1.6 0.6 3 1.3 1.4 0.8 2.8 1.5 3.3 1.6 0.4 0.1 0.9 0.3 1.2 0.4 0.3 0.1 1 0.4 1.5 0.5 0.6 0.1 1.1 0.3 1.3 0.4 0.1 0.2 2 0.5 4.2 0.7 2.2 0.3 4.4 0.9 4.9 1.4 0.5 0.5 1.5 0.6 2.2 0.3 0.8-0.3 2.2-0.2 3.2 0.2 3.2 1.3 29.9 0.6 37.9-1 10.1-2.1 13.3-3.1 21.8-7.1 14-6.7 25.6-16.4 34.1-28.7 3.1-4.5 5.7-8.7 5.8-9.2 0.2-1.1 5.4-17 6.3-19.5 0.4-0.8 0.5-1.9 0.4-2.4-0.1-0.5 0.1-1.6 0.5-2.5 0.4-0.9 0.6-2.8 0.5-4.3-0.1-1.5 0.1-3.3 0.4-3.9 1.6-2.5 1.9-44.8 0.4-65.8-0.6-8.4-0.8-15.9-0.5-16.7 0.3-0.7 0.1-1.6-0.5-2-0.6-0.3-0.9-2.9-0.8-5.8 0.1-2.9-0.1-5.8-0.5-6.4-0.4-0.7-0.6-3.4-0.5-6 0.1-2.7-0.1-5.4-0.5-6-0.4-0.7-0.6-3.4-0.5-6 0.1-2.7-0.1-5.4-0.5-6-0.4-0.7-0.6-3.6-0.5-6.5 0.1-2.9-0.1-5.9-0.5-6.5-0.4-0.7-0.7-3.8-0.6-7 0.2-3.1-0.1-6.4-0.4-7.3-1-2.4-0.2-60.1 0.8-61.8 0.8-1.3 1.4-5.5 1.6-10.8 0-1.2 0.5-2.5 1-2.8 0.5-0.3 0.7-1.2 0.3-2-0.3-0.8-0.2-2.3 0.2-3.3 0.5-0.9 0.7-2.4 0.6-3.4-0.1-0.9 0.3-1.9 0.9-2.3 0.6-0.3 0.8-1 0.5-1.5-0.6-0.9 4-17.2 5.7-20.4 0.7-1.1 1.3-2.3 1.3-2.6 0-0.3 0.6-1.5 1.3-2.8 0.7-1.2 1-2.2 0.7-2.2-0.4 0 4.8-10.4 8-15.9 3-5.2 8.3-10.4 13.3-13.2 5.3-2.9 6.4-3.2 15.2-3.3 12.4-0.1 15.8 1.2 23.4 8.8 16.1 16.1 26.1 37.9 32.1 70.4 4.7 25.1 5.5 34.6 6.5 75.7 1.6 62.9 4.1 93.2 9.6 114.4 7.6 29.1 17.9 49.6 32.3 63.8 9.4 9.3 17.7 14.3 32.1 19.3 3.6 1.2 7.2 2.5 8 2.8 0.8 0.3 1.9 0.4 2.4 0.3 0.5-0.1 1.6 0.1 2.5 0.4 0.9 0.4 5.9 0.6 11.1 0.5 26.1-0.4 48.1-15.9 63.6-44.5 2-3.9 4.4-7.8 5.2-8.8 0.8-0.9 1.2-1.7 0.8-1.7-0.3 0 0.8-2.8 2.6-6.3 1.8-3.4 3.1-6.5 3-6.9-0.1-0.3 0.5-1.2 1.3-1.8 0.8-0.7 1.5-1.8 1.5-2.5 0-2.4 9.9-16.1 15.3-21.3 7.5-7 10.4-7.1 19.3-0.5 6.8 5 7.9 6.6 26.9 37.3 9.3 15.2 15.1 22.7 21.7 28.2 4.4 3.6 15.4 9.8 18.7 10.4 0.7 0.1 3.4 0.7 6 1.3 12.9 2.8 21.3 2.2 31.1-2.6 10.3-5 17.5-14 29.5-37.2 6.9-13.2 11.3-19 17-22.9 4.8-3.3 5.1-3.3 14.1-2.9 5.6 0.2 9.9 0.8 10.8 1.6 0.9 0.8 1.6 1.1 1.6 0.7 0-1.1 8.6 3.9 13.3 7.8 2.6 2.2 8.2 8.3 12.4 13.6 10 12.3 25.1 27.4 33.4 33.1 11.9 8.3 9.9 8.1 86.9 7.7l67.5-0.3 3.8-2.3c2-1.3 3.7-2.7 3.7-3.2 0-0.5 1-3 2.2-5.7 1.1-2.6 2.2-5.4 2.4-6.1 0.4-2.1 4.8-8.1 5.5-7.6 0.4 0.2 2 3.7 3.5 7.6 3.5 9.3 8.5 14.8 15.6 17.2 2.9 1 6 2 6.8 2.3 0.8 0.3 4.9 0.4 9.2 0.3 4.2 0 7.8 0.2 8.1 0.7 0.3 0.4 9 0.5 19.4 0.2 10.3-0.4 33.2-0.8 50.8-1l32-0.3 0.7 2.5c4.5 15.7 6.5 21.4 9.4 27.2 8.9 18 25.9 36.3 41.4 44.6 2.5 1.3 5.3 3.1 6.3 3.9 0.9 0.8 1.7 1.2 1.7 0.8 0-0.3 1.3 0 3 0.9 1.6 0.8 3.1 1.5 3.2 1.4 0.2-0.2 1.4 0.4 2.8 1.1 1.4 0.8 2.8 1.3 3.2 1.2 0.4-0.1 2 0.3 3.5 0.9 1.5 0.7 3.9 1.3 5.2 1.5 1.3 0.2 3.1 0.6 4 1 0.9 0.4 2.6 0.6 3.8 0.5 1.3-0.1 2.8 0.1 3.4 0.4 0.6 0.4 6.7 0.6 13.5 0.6 18.9-0.3 31.6-3.2 46.7-10.7 17.7-8.7 30.8-20.3 42-37 3.7-5.5 6.7-10.6 6.7-11.3 0-0.6 1-3.1 2.2-5.4 1.2-2.3 2.3-4.5 2.4-5 0.1-0.4 0.3-0.9 0.4-1.2 0.1-0.3 0.4-1 0.5-1.5 0.1-0.6 0.4-1.3 0.5-1.8 0.1-0.4 0.2-1 0.1-1.4 0-0.4 0.4-2 1.1-3.5 0.6-1.5 1.1-3.1 1-3.5-0.1-0.4 0.3-2.8 0.8-5.5 1.1-5.5 1.5-29.9 0.5-32.6-0.4-0.9-0.5-2.4-0.2-3.2 0.4-0.8 0.1-1.7-0.4-2.1-0.6-0.3-0.9-1.5-0.6-2.5 0.3-1 0.1-2.2-0.5-2.5-0.5-0.3-0.7-1.2-0.4-1.9 0.2-0.7-0.1-1.8-0.7-2.4-0.6-0.6-0.7-1.1-0.3-1.1 0.5 0 0.4-0.6-0.2-1.3-0.6-0.7-1.3-2.5-1.6-4.1-0.3-1.5-1-3.4-1.7-4.2-0.6-0.8-0.9-1.4-0.5-1.4 0.3 0-0.5-2.1-1.9-4.8-15.4-28.9-39.7-48.5-69.9-56.3-8.5-2.3-38.3-4.2-39.3-2.6-0.3 0.5-1.7 0.7-3.1 0.6-1.5-0.1-3.4 0.1-4.2 0.4-1.8 0.7-16.1 4.9-17.5 5.1-0.5 0.1-2.5 1-4.2 1.9-1.8 1-3.3 1.4-3.3 1.1 0-0.4-0.8 0-1.8 0.9-0.9 0.8-2.8 2-4.2 2.6-5 2.2-9.6 5.4-16.5 11.5-12.5 11-19.1 19.3-25.9 32.5-5.6 10.8-8.4 19.6-10.5 32.5l-1.7 10.1-16.9 0.4c-9.4 0.3-35.6 0.5-58.3 0.5-40.3 0.1-41.4 0.1-42.5-1.9-0.6-1.1-1.2-2.2-1.2-2.5 0-0.3-0.6-1.4-1.2-2.5-0.6-1.1-1.1-2.4-1.1-2.8-0.1-2.7-5.1-10.3-9.3-14.1-4.9-4.4-13.3-8-15.4-6.6-0.5 0.4-3.1 1.4-5.7 2.4-6 2.2-13.2 9.9-17.5 18.8l-3.2 6.5-60.8-0.1c-68.2-0.2-61.8 0.5-73.3-8-9.7-7.1-19-16.7-26.8-27.5-7.1-9.8-19.7-20.5-29.3-24.9-7.7-3.5-27.1-7.5-30.4-6.2-0.5 0.2-2.2 0.4-3.6 0.5-1.4 0.1-3.1 0.5-3.8 0.9-0.7 0.5-1.5 0.5-1.8 0.2-0.3-0.3-1.2-0.1-1.9 0.4-0.6 0.6-2.1 1.3-3.3 1.5-2.8 0.5-12.8 7.4-17.5 12.1-5.3 5.3-13.1 17.5-20.1 31.4-7.3 14.5-9.4 17.3-14.9 20.1-9.1 4.5-22.3-0.4-34.1-12.5-4-4.1-8-8.9-8.9-10.7-2.1-4.1-3.1-5.8-7.7-12.9-2-3-3.9-6.2-4.3-7-2.8-5.9-12.2-19.3-17.1-24.3-8.6-8.7-19.3-13.4-31.2-13.7-3.7-0.1-8.1 0.3-9.8 0.9-1.6 0.7-4.9 1.9-7.3 2.8-5.2 1.9-15.3 11.6-21.2 20.3-2.3 3.4-8.3 14.4-13.2 24.4-10.9 22-16.1 30.1-24.3 38.3-8.6 8.6-14.2 11.1-25.2 11.2-17 0.2-30.1-5.5-43-18.6-4.6-4.6-8.3-8.8-8.3-9.4 0-0.5-0.9-2.2-2-3.7-1.1-1.5-2.2-3.6-2.4-4.7-0.2-1.1-1.3-3.6-2.5-5.6-1.1-1.9-2.3-4.6-2.5-5.9-0.2-1.4-0.5-2.6-0.7-2.8-0.1-0.1-0.3-0.7-0.4-1.2-0.1-0.6-0.4-1.2-0.5-1.5-0.1-0.3-0.3-0.8-0.5-1.3-0.1-0.4-0.7-2-1.4-3.6-0.6-1.6-0.9-3.1-0.6-3.4 0.2-0.3 0-1.1-0.7-1.9-0.6-0.7-0.8-1.6-0.5-2 0.4-0.3 0.3-1.1-0.2-1.7-1.1-1.4-3.3-11.7-2.6-12.4 0.3-0.3 0-1.1-0.5-1.7-0.6-0.7-1.2-3.7-1.4-6.8-0.2-3.1-0.7-6.1-1.1-6.7-0.3-0.6-0.5-2.7-0.4-4.8 0.2-2.1 0-4.3-0.4-4.9-0.7-1.1-1.3-10.7-2.6-44.3-0.3-6.3-0.7-21.6-0.9-34-0.5-29.5-1-39.8-1.7-41-0.4-0.6-0.6-2.7-0.4-4.8 0.1-2-0.2-4.5-0.6-5.5-0.4-0.9-0.5-2.6-0.2-3.7 0.3-1.1 0.1-2.3-0.5-2.6-0.5-0.3-0.8-1.8-0.7-3.2 0.1-1.5-0.2-3.5-0.6-4.5-0.4-0.9-0.5-2.4-0.2-3.2 0.4-0.8 0.1-1.7-0.4-2.1-0.6-0.3-0.9-1.7-0.6-3 0.2-1.4 0-2.7-0.5-3-0.5-0.3-0.8-1.6-0.7-2.7 0.1-1.2-0.1-2.9-0.4-3.7-0.8-2-3.9-14-4.3-16.5-0.1-1.1-0.3-2.1-0.4-2.3-0.2-0.1-0.3-0.5-0.5-1-0.1-0.4-1-2.5-2-4.7-0.9-2.2-1.8-4.5-2-5-0.4-2-9.1-19.1-11.8-23.2-1.5-2.4-2.7-4.5-2.7-4.7 0-1.5-9.2-13.6-14.1-18.7-6.9-7.2-14.6-11-23.9-11.8-3.6-0.4-7.1-1-7.8-1.5-1.9-1.2-16.2-2.3-16.9-1.3zm951.2 257.7c0.3 0.5 1.2 0.7 2 0.3 0.8-0.3 2.3-0.2 3.3 0.2 0.9 0.5 2.4 0.7 3.4 0.6 0.9-0.1 1.9 0.3 2.3 0.9 0.3 0.6 1 0.8 1.5 0.5 0.5-0.3 2.1 0 3.7 0.6 1.5 0.7 3.6 1.4 4.6 1.6 2.6 0.5 13.6 6.1 18.6 9.6 6.9 4.7 18.7 16.3 23.7 23.4 5.6 7.8 11.6 20.5 13.9 29.3 2.2 8.6 3.1 29.1 1.6 37.2-4.4 23.1-15.5 41.4-34.6 57.1-4.8 3.9-21.5 13.3-21.5 12.1 0-0.4-0.7-0.1-1.5 0.6-0.8 0.7-1.5 0.9-1.5 0.5 0-0.4-0.7-0.2-1.5 0.5-0.8 0.7-1.5 0.9-1.5 0.5 0-0.4-0.6-0.3-1.2 0.2-1.5 1.2-11 3.5-12.9 3.2-0.8-0.1-2.2 0.1-3.2 0.6-3.3 1.4-25.7-0.2-33.5-2.5-19.3-5.5-35.8-16.6-48.1-32.5-5.6-7.2-6.2-8.2-10.5-17-4-8.2-7-18-6.2-20.1 0.8-2.2 31.5-1.6 32.7 0.6 0.4 0.8 2.2 4.6 4 8.5 4.4 9.5 16.2 21.2 25.7 25.7 3.7 1.7 7.4 3.2 8.2 3.3 0.8 0.2 4.2 0.8 7.5 1.5 7.8 1.6 21.3 0.7 28.8-1.9 14.6-5.1 27.7-16.2 33.7-28.6 1.8-3.9 3.5-7.3 3.6-7.8 0.1-0.4 0.2-0.8 0.3-1 1.9-2.4 2-28.9 0.2-35.5-0.1-0.1-0.1-0.4-0.2-0.7-0.4-2.2-8.4-15.8-11.5-19.5-8.8-10.7-23-18.2-36.9-19.8-8.3-0.9-15.9-0.8-18.5 0.2-0.8 0.3-2.6 0.7-4 0.9-1.4 0.2-5.1 1.6-8.4 3-3.2 1.5-6 2.7-6.2 2.7-1.7 0-12.5 9.6-16 14.4-5.9 7.8-8.2 12.3-10.8 21.6l-2.2 7.5-10.9 0.2c-6.1 0.1-12.7 0.5-14.7 0.9-4.3 0.7-7.3-0.9-6.3-3.5 0.4-0.9 0.8-3.8 1.1-6.5 0.2-2.7 0.8-5.4 1.4-6.1 0.5-0.6 0.7-1.4 0.4-1.8-0.3-0.3 0-1.6 0.7-2.9 0.7-1.2 1.2-2.7 1.1-3.1-0.1-0.4 0.5-2.1 1.3-3.7 0.9-1.6 1.5-3.2 1.5-3.5-0.1-1.3 3.7-7.7 9.1-15 14.9-20.6 35.1-33.5 58.6-37.5 6.9-1.1 25.1-1.2 25.8 0z"/>
		<path class="s1" d="m1016 491v51h2.9c1.5 0 4.9-0.3 7.5-0.6l4.6-0.7v-50.3-50.4h-7.5-7.5z"/>
		<path class="s1" d="m795.5 442.6c-5.5 1.9-11.1 6.7-13.8 11.7-2.2 4.1-2.2 5-2.5 45.9l-0.3 41.8h7.4 7.4l0.6-39.5c0.6-38.8 0.7-39.6 2.9-42.5 3.7-5 9.7-5.2 14.4-0.5l2.4 2.4v40.1 40h8 8v-39.9-39.9l3.5-3.1c4.9-4.2 8.7-4.1 13.1 0.3l3.4 3.4v39.6 39.6h7.5 7.5v-39.6c0-25.5-0.4-41.1-1.1-43.9-1.4-5.4-6.7-11.8-12.3-14.8-6.3-3.3-17.2-3-24.9 0.7-5.3 2.6-5.9 2.7-7.5 1.3-4.8-4.4-16.1-5.8-23.7-3.1z"/>
		<path class="s1" d="m881.1 468.7c0.1 15.3 0.4 37.8 0.8 50.1l0.6 22.3h24.5 24.5l0.3-7 0.3-7.1-17.3-0.2-17.3-0.3v-9.5-9.5l17.3-0.3 17.2-0.2v-7.5-7.5l-17.2-0.2-17.3-0.3v-18-18l17.3-0.3 17.2-0.2v-7-7h-25.5-25.5z"/>
		<path class="s1" d="m949 491.7v51l7.8-0.4c4.2-0.1 11.5-0.4 16.2-0.6 11.8-0.5 19.1-4.4 23.7-13 1.6-2.9 1.8-6.7 1.8-37.3v-34.1l-3-4.9c-1.9-3-4.9-6-7.9-7.9-4.9-3-5.1-3-21.8-3.4l-16.8-0.3zm31.9-32.2l3.1 3.6v28.5 28.6l-3.4 3.4c-3 3-4 3.4-8.8 3.4-3 0-5.9-0.5-6.6-1.2-0.9-0.9-1.2-9.9-1.2-34.3 0-24.4 0.3-33.4 1.2-34.3 0.7-0.7 3.8-1.2 6.9-1.2 5.3 0 5.9 0.3 8.8 3.5z"/>
		<path class="s1" d="m1063.5 442.2c-7.6 2.7-14.8 10.4-16 17.2-0.3 1.7-0.5 17.3-0.3 34.7l0.3 31.6 3 4.9c1.9 3 4.9 6 7.9 7.9 4.5 2.7 5.7 3 13.5 3 9 0 12.9-1.3 17.9-5.9 5-4.4 8.6-15.3 7.5-22.3l-0.6-3.3h-7.3-7.4v4.5c0 5.2-2.1 9.9-4.9 11.5-2.8 1.5-8.3 1.2-10.7-0.5-4.2-2.9-4.5-5.7-4.2-35.4l0.3-28.3 3.3-2.9c7.5-6.7 16.2-1.6 16.2 9.6v4.5h8.1 8l-0.6-5.8c-1.5-12.7-4.2-17.9-11.9-22.6-4-2.5-5.9-3-11.9-3.2-4-0.1-8.5 0.3-10.2 0.8z"/>
		<path class="s1" d="m1130.8 442.8c-5.6 2-9.1 5.1-12.6 11.2l-2.7 4.5-0.3 41.7-0.3 41.8h8 8.1l0.2-16.8 0.3-16.7h9.5 9.5l0.3 16.7 0.2 16.8h7.5 7.5v-40.3c-0.1-43.2-0.2-44.3-5.4-51.2-6.3-8.2-19.3-11.6-29.8-7.7zm16.4 16l3.1 2.9 0.5 13.5c0.6 18.1 0.7 18-10.6 17.6l-8.7-0.3-0.3-15.3-0.3-15.3 3-3c4-3.9 8.9-4 13.3-0.1z"/>
		<path class="s0" d="m348.5 448.3c-18.4 9.8-23.4 28.1-13.6 48.9 3.3 6.8 7.8 11.5 14.6 14.7 5.3 2.6 6.2 2.8 8 1.5 1.1-0.7 5-2.8 8.7-4.6 3.7-1.8 6.6-3.6 6.5-3.9-0.1-0.4-2.5-2.5-5.4-4.7-5.2-4.2-10.3-10-10.7-12.4-0.1-0.7-0.7-2.2-1.3-3.3-1.6-2.9-1.4-14.6 0.3-17.3 0.8-1.2 1.2-2.2 0.9-2.2-1.3 0 6.8-9.5 10.5-12.4l4.1-3.1-7.3-2.2c-4-1.3-7.7-2.3-8.3-2.3-0.5 0-3.7 1.5-7 3.3z"/>
		<path class="s1" d="m379 458.2l-6.5 3.3-0.3 13c-0.1 7.1 0 14 0.3 15.1 0.3 1.5 3 3.5 7.9 6l7.5 3.9 4.4-1.7c2.4-0.9 6.3-2.8 8.6-4.2l4.1-2.6v-14.9-15l-5.7-2.7c-8.8-4.1-12.6-4.2-20.3-0.2z"/>
		<path class="s0" d="m416.4 528c-0.5 0.5-2.1 1.1-3.4 1.4-1.4 0.2-2.6 0.5-2.7 0.7-0.2 0.1-0.6 0.2-1 0.3-0.5 0.1-1.4 0.5-2 0.9-0.7 0.5-1.3 0.5-1.3 0.1 0-0.3-0.7-0.1-1.5 0.6-0.8 0.7-1.5 0.9-1.5 0.5 0-0.4-0.7-0.2-1.5 0.5-1.4 1.1-1.4 1.5-0.1 2.9 6.9 7.7 5.9 26.2-2.2 41.3-4 7.5-4 7.3 2.6 11 2.2 1.1 2.6 0.9 5.7-2.7 5-5.8 12.9-19.1 15.3-25.6 2-5.4 3.2-18.2 1.9-19.6-0.4-0.3-0.7-1.3-0.7-2.1 0-2.2-4.1-10-5.5-10.6-0.7-0.2-1.7 0-2.1 0.4z"/>
		<path class="s1" d="m384.5 543.2c-2.6 3-2.7 3.7-2.2 10.3 0.6 8.6 4.1 18.5 6.5 18.5 2.5 0 5.4-9.8 6-19.6 0.4-7.9 0.4-8.1-2.3-10.2-3.7-2.9-4.8-2.8-8 1z"/>
		<path class="s1" d="m780 616v51.1l6.8-0.7c3.7-0.4 6.8-0.7 6.9-0.8 0.1-0.1 0.4-22.8 0.5-50.4l0.3-50.2h-7.2-7.3z"/>
		<path class="s1" d="m943 598.1c0 18.4 0.3 41.2 0.7 50.6l0.6 17.3h24.9 24.8v-7-7l-17.2-0.2-17.3-0.3v-9.5-9.5l17.3-0.3 17.2-0.2v-7.5-7.5l-17.2-0.2-17.3-0.3v-18-18l17.3-0.3 17.2-0.2v-7-7h-16.3c-9 0-20.5-0.3-25.5-0.6l-9.2-0.7z"/>
		<path class="s1" d="m1077.6 565.6c-1.8 0.6-1.9 1.4-1.2 12.7 0.3 6.6 0.6 29 0.6 49.9v37.8h7.5 7.5v-16.5-16.5l2.7-1.1c3.7-1.4 11-0.1 14.1 2.6 2.6 2.3 2.7 2.7 3.2 16.7l0.5 14.3 7.9 0.3 7.8 0.3-0.3-15.3c-0.4-14.5-0.6-15.6-3.2-20.2-3.3-5.8-3.3-5.8-0.6-11.3 4-8.3 5-31.5 1.6-39.5-2.1-4.9-6.4-9.6-11.1-12-3.5-1.8-6.2-2.1-19.6-2.4-8.5-0.2-16.4-0.1-17.4 0.2zm31.5 17.3c2.9 2.9 2.9 3 2.9 15.4v12.5l-3.6 3.1c-3.2 2.9-4.1 3.2-9.2 2.9l-5.7-0.3-0.3-16.9c-0.2-11.6 0.1-17.3 0.9-18.2 0.7-0.9 3.2-1.4 6.6-1.4 4.7 0 5.9 0.4 8.4 2.9z"/>
		<path class="s1" d="m825 568.1c-5.5 2.5-9.5 6.2-12.3 11.4-2.1 3.9-2.2 5.2-2.5 45.5l-0.3 41.5 7.8-0.3 7.8-0.3-0.4-10.2c-0.2-5.6 0-23.4 0.4-39.5 0.7-29.2 0.7-29.3 3.2-32.3 2.9-3.4 8.3-4 12.2-1.3 4.9 3.5 5.1 5.6 5.1 46.4v38h7.6 7.5l-0.3-41.8c-0.3-40.8-0.3-41.8-2.5-45.8-2.5-4.6-8.2-9.6-13.7-11.9-5.1-2.1-14.2-1.9-19.6 0.6z"/>
		<path class="s1" d="m877 573v6.9l8.3 0.3 8.2 0.3 0.3 43.2 0.2 43.3h8 8l0.2-43.3 0.3-43.2 8.3-0.3 8.2-0.3v-6.9-7h-25-25z"/>
		<path class="s1" d="m1023 569.2c-5 2.6-7.1 4.4-9.5 8.2l-3 4.9v34.1c0 38-0.2 36.9 7.1 44 8.5 8.3 24 8.8 34.1 1 1.8-1.4 4.5-4.9 6-7.7l2.7-5.2 0.1-23.5v-23.5l-11.7-0.3-11.8-0.3v7 7l3.8 0.3 3.7 0.3 0.3 15.3 0.3 15.3-3.3 2.9c-4.7 4.4-9.6 4.2-13.7-0.5l-3.1-3.6v-28c0-18.7 0.4-28.8 1.1-30.2 3.3-6.4 10.8-7.6 15.8-2.6 1.7 1.7 3.1 3.5 3.1 4 0 0.5 3.4 0.9 7.6 0.9h7.7l-0.6-4.2c-0.7-5.5-5.2-11.6-11.1-15.3-4-2.4-6.2-3-12-3.3-6.5-0.4-7.7-0.1-13.6 3z"/>
		<path class="s1" d="m1157 568.8c-6.1 3-10.6 8.5-12 14.8-0.5 2.1-1 21.8-1 43.6v39.8h7.5 7.5l0.2-25.8 0.3-25.7h10 10l0.3 25.7 0.2 25.8h7.6 7.5l-0.3-41.3c-0.3-37.2-0.5-41.6-2.1-45.2-5.9-13-22.2-18.4-35.7-11.7zm19 15c3 3.1 4.8 10.2 3.5 14.1-0.6 2-1.2 2.2-10.3 1.9l-9.7-0.3-0.3-4.4c-0.4-6 0.4-8.8 3.5-11.7 3.8-3.5 9.5-3.3 13.3 0.4z"/>
		<path class="s1" d="m1211.3 597.2c0.4 16.1 0.7 38.9 0.7 50.5v21.3h25 25v-7.5-7.5l-17.2-0.2-17.3-0.3-0.3-42.8-0.2-42.7h-8.2-8.1z"/>
	</g>
</svg>